<svg version="1.1" id="Icon_Set" xmlns="http://www.w3.org/2000/svg" x="0" y="0" viewBox="0 0 256 256" style="enable-background:new 0 0 256 256" xml:space="preserve">
  <style>
    .st0{fill:#1e293b}
    .st2{fill:#64748b}
    .st4{fill:#94a3b8}
  </style>
  
  <circle cx="128" cy="128" r="103.5" fill="#f8fafc"/>
  
  <path d="M136.938 44.695c-32.706-.818-59.611 24.82-60.849 57.039-.03.77-.049 1.543-.049 2.32 0 .777.02 1.55.049 2.319v14.13l-14.336 22.584c-1.47 2.315.194 5.341 2.936 5.341h11.399v27.434c0 6.216 5.039 11.256 11.256 11.256h31.165v24.207h59.132v-56.983c0-5.143 1.779-10.097 4.91-14.177a59.11 59.11 0 0 0 12.243-35.92c.101-32.129-25.737-58.747-57.856-59.55z" fill="#e2e8f0"/>
  
  <path class="st4" d="M142.897 45.145c23.529 7.991 40.487 30.408 40.405 56.448a59.102 59.102 0 0 1-12.243 35.92c-3.131 4.08-4.91 9.034-4.91 14.176v59.635h11.491v-56.983c0-5.143 1.779-10.097 4.91-14.177a59.11 59.11 0 0 0 12.243-35.92c.096-30.115-22.6-55.389-51.896-59.099z"/>
  
  <path class="st0" d="M177.641 214.325h-59.132a3 3 0 0 1-3-3v-21.207H87.344c-7.861 0-14.256-6.395-14.256-14.256v-24.434h-8.399a6.477 6.477 0 0 1-5.468-9.949l13.868-21.848V106.43c-.03-.789-.049-1.58-.049-2.376 0-.816.021-1.627.052-2.436 1.312-34.141 29.545-60.769 63.922-59.922 33.621.84 60.888 28.904 60.781 62.558-.043 13.779-4.491 26.829-12.863 37.737-2.767 3.605-4.29 7.991-4.29 12.351v56.983a3.002 3.002 0 0 1-3.001 3zm-56.132-6h53.132v-53.983c0-5.673 1.964-11.356 5.53-16.003 7.564-9.857 11.583-21.65 11.623-34.103.096-30.418-24.546-55.782-54.931-56.542-31.098-.778-56.59 23.298-57.777 54.155-.028.732-.047 1.466-.047 2.205s.019 1.472.047 2.203l.002.116v14.13c0 .569-.162 1.127-.467 1.608l-14.335 22.584c-.037.059-.151.238-.015.486s.349.248.418.248h11.399a3 3 0 0 1 3 3v27.434c0 4.552 3.704 8.256 8.256 8.256h31.165a3 3 0 0 1 3 3v21.206z"/>
  
  <path class="st4" d="M156.276 123.462h-35.935a6.332 6.332 0 0 1-6.333-6.332V81.195a6.333 6.333 0 0 1 6.333-6.333h35.935a6.334 6.334 0 0 1 6.333 6.333v35.935a6.333 6.333 0 0 1-6.333 6.332z"/>
  
  <circle class="st2" cx="137.231" cy="173.422" r="8.396"/>
  <circle class="st2" cx="159.327" cy="151.16" r="8.396"/>
  
  <path class="st0" d="M156.276 126.462h-35.935c-5.146 0-9.333-4.187-9.333-9.333V81.195c0-5.146 4.187-9.333 9.333-9.333h35.935c5.146 0 9.333 4.187 9.333 9.333v35.935c0 5.145-4.187 9.332-9.333 9.332zm-35.934-48.6a3.337 3.337 0 0 0-3.333 3.333v35.935a3.337 3.337 0 0 0 3.333 3.333h35.935a3.337 3.337 0 0 0 3.333-3.333V81.195a3.337 3.337 0 0 0-3.333-3.333h-35.935z"/>
  
  <path class="st0" d="M127.166 136.6a3 3 0 0 1-3-3v-10.138a3 3 0 1 1 6 0V133.6a3 3 0 0 1-3 3zM149.452 136.6a3 3 0 0 1-3-3v-10.138a3 3 0 1 1 6 0V133.6c0 1.656-1.344 3-3 3zM138.309 136.6a3 3 0 0 1-3-3v-10.138a3 3 0 1 1 6 0V133.6a3 3 0 0 1-3 3zM127.166 77.862a3 3 0 0 1-3-3V64.725a3 3 0 1 1 6 0v10.137a3 3 0 0 1-3 3zM149.452 77.862a3 3 0 0 1-3-3V64.725a3 3 0 1 1 6 0v10.137a3 3 0 0 1-3 3zM138.309 77.862a3 3 0 0 1-3-3V64.725a3 3 0 1 1 6 0v10.137a3 3 0 0 1-3 3zM114.009 91.02h-10.137a3 3 0 1 1 0-6h10.137a3 3 0 1 1 0 6zM114.009 102.162h-10.137a3 3 0 1 1 0-6h10.137a3 3 0 1 1 0 6zM114.009 113.305h-10.137a3 3 0 1 1 0-6h10.137a3 3 0 1 1 0 6z"/>
  
  <g><path class="st0" d="M172.746 91.02h-10.137a3 3 0 1 1 0-6h10.137a3 3 0 1 1 0 6zM172.746 102.162h-10.137a3 3 0 1 1 0-6h10.137a3 3 0 1 1 0 6zM172.746 113.305h-10.137a3 3 0 1 1 0-6h10.137a3 3 0 1 1 0 6z"/></g>
  
  <g><path class="st0" d="M137.231 214.325a3 3 0 0 1-3-3v-29.506a3 3 0 1 1 6 0v29.506a3 3 0 0 1-3 3z"/></g>
  
  <g><path class="st0" d="M159.327 214.325a3 3 0 0 1-3-3v-51.768a3 3 0 1 1 6 0v51.768a3 3 0 0 1-3 3z"/></g>
  
  <g><path class="st0" d="M137.231 184.819c-6.284 0-11.396-5.112-11.396-11.396s5.112-11.396 11.396-11.396 11.396 5.112 11.396 11.396-5.111 11.396-11.396 11.396zm0-16.793c-2.976 0-5.396 2.421-5.396 5.396s2.421 5.396 5.396 5.396 5.396-2.421 5.396-5.396-2.42-5.396-5.396-5.396z"/></g>
  
  <g><path class="st0" d="M159.327 162.557c-6.284 0-11.396-5.112-11.396-11.396s5.112-11.396 11.396-11.396 11.396 5.112 11.396 11.396-5.112 11.396-11.396 11.396zm0-16.793c-2.976 0-5.396 2.421-5.396 5.396s2.421 5.396 5.396 5.396 5.396-2.421 5.396-5.396-2.42-5.396-5.396-5.396z"/></g>
  
  <g><path d="M145.51 110.768h-14.403a4.404 4.404 0 0 1-4.404-4.404V91.961a4.404 4.404 0 0 1 4.404-4.404h14.403a4.404 4.404 0 0 1 4.404 4.404v14.403a4.403 4.403 0 0 1-4.404 4.404z" fill="#cbd5e1"/></g>
  
  <g><path class="st0" d="M145.51 113.768h-14.403c-4.083 0-7.404-3.322-7.404-7.404V91.961c0-4.083 3.322-7.404 7.404-7.404h14.403c4.083 0 7.404 3.322 7.404 7.404v14.403c.001 4.082-3.321 7.404-7.404 7.404zm-14.403-23.211c-.774 0-1.404.63-1.404 1.404v14.403c0 .774.63 1.404 1.404 1.404h14.403c.774 0 1.404-.63 1.404-1.404V91.961c0-.774-.63-1.404-1.404-1.404h-14.403z"/></g>
</svg>